<svg width="1600" height="1200" viewBox="0 0 1600 1200" fill="none" xmlns="http://www.w3.org/2000/svg">
  <defs>
    <linearGradient id="sky" x1="800" y1="70" x2="800" y2="1200" gradientUnits="userSpaceOnUse">
      <stop stop-color="#19335D"/>
      <stop offset="0.48" stop-color="#102447"/>
      <stop offset="1" stop-color="#07111F"/>
    </linearGradient>
    <radialGradient id="moonGlow" cx="0" cy="0" r="1" gradientUnits="userSpaceOnUse" gradientTransform="translate(1220 220) rotate(90) scale(220)">
      <stop stop-color="#E0F2FE" stop-opacity="0.95"/>
      <stop offset="0.58" stop-color="#93C5FD" stop-opacity="0.38"/>
      <stop offset="1" stop-color="#93C5FD" stop-opacity="0"/>
    </radialGradient>
    <linearGradient id="trunk" x1="910" y1="300" x2="1170" y2="1130" gradientUnits="userSpaceOnUse">
      <stop stop-color="#4A2D25"/>
      <stop offset="1" stop-color="#1B0F16"/>
    </linearGradient>
    <linearGradient id="branch" x1="460" y1="595" x2="1190" y2="820" gradientUnits="userSpaceOnUse">
      <stop stop-color="#5B342B"/>
      <stop offset="1" stop-color="#2A1719"/>
    </linearGradient>
    <radialGradient id="leafGlow" cx="0" cy="0" r="1" gradientUnits="userSpaceOnUse" gradientTransform="translate(1110 420) rotate(93) scale(270 320)">
      <stop stop-color="#7DD3FC" stop-opacity="0.38"/>
      <stop offset="0.48" stop-color="#34D399" stop-opacity="0.22"/>
      <stop offset="1" stop-color="#34D399" stop-opacity="0"/>
    </radialGradient>
    <linearGradient id="leaf" x1="830" y1="240" x2="1315" y2="650" gradientUnits="userSpaceOnUse">
      <stop stop-color="#44C1A0"/>
      <stop offset="1" stop-color="#0E7A61"/>
    </linearGradient>
    <linearGradient id="bugBody" x1="610" y1="425" x2="790" y2="770" gradientUnits="userSpaceOnUse">
      <stop stop-color="#EF5DA8"/>
      <stop offset="1" stop-color="#BE185D"/>
    </linearGradient>
    <linearGradient id="wing" x1="500" y1="500" x2="845" y2="655" gradientUnits="userSpaceOnUse">
      <stop stop-color="#F8FAFC" stop-opacity="0.95"/>
      <stop offset="1" stop-color="#93C5FD" stop-opacity="0.28"/>
    </linearGradient>
    <linearGradient id="belly" x1="612" y1="542" x2="745" y2="722" gradientUnits="userSpaceOnUse">
      <stop stop-color="#FBCFE8"/>
      <stop offset="1" stop-color="#F9A8D4"/>
    </linearGradient>
  </defs>

  <rect width="1600" height="1200" fill="url(#sky)"/>
  <rect width="1600" height="1200" fill="url(#moonGlow)"/>

  <circle cx="1220" cy="220" r="88" fill="#F8FAFC" fill-opacity="0.92"/>
  <circle cx="1220" cy="220" r="102" stroke="#BAE6FD" stroke-opacity="0.3" stroke-width="16"/>

  <path d="M1010 274C1150 231 1297 312 1324 436C1357 585 1239 696 1088 678C936 660 798 514 838 389C864 309 934 288 1010 274Z" fill="url(#leafGlow)"/>
  <path d="M1039 251C1152 236 1280 316 1298 418C1317 530 1244 629 1122 628C1004 626 867 548 830 449C789 340 912 267 1039 251Z" fill="url(#leaf)"/>
  <path d="M880 347C930 272 1055 223 1117 250C1179 277 1222 378 1191 445C1161 511 1086 570 1023 576C960 581 854 540 832 468C809 395 844 401 880 347Z" fill="#15803D" fill-opacity="0.34"/>

  <path d="M1035 305C1043 380 1038 514 1048 610C1060 723 1087 863 1104 952C1118 1025 1132 1086 1125 1130H1325C1306 1084 1279 999 1251 908C1211 777 1176 640 1183 508C1188 408 1204 333 1229 281C1170 257 1100 262 1035 305Z" fill="url(#trunk)"/>
  <path d="M516 630C619 601 765 584 917 596C1040 606 1139 639 1198 689C1120 721 1038 768 948 811C796 883 628 951 504 932C436 921 384 884 376 833C365 769 433 654 516 630Z" fill="url(#branch)"/>
  <path d="M736 645C815 637 902 643 978 664C929 693 880 733 831 774C774 822 722 874 663 890C622 901 567 888 545 852C520 811 540 739 585 697C626 660 678 650 736 645Z" fill="#764132" fill-opacity="0.52"/>

  <ellipse cx="626" cy="577" rx="114" ry="93" fill="url(#wing)" transform="rotate(-20 626 577)"/>
  <ellipse cx="760" cy="563" rx="101" ry="86" fill="url(#wing)" transform="rotate(18 760 563)"/>
  <ellipse cx="607" cy="596" rx="83" ry="66" fill="#F8FAFC" fill-opacity="0.22" transform="rotate(-18 607 596)"/>
  <ellipse cx="779" cy="587" rx="74" ry="60" fill="#F8FAFC" fill-opacity="0.18" transform="rotate(18 779 587)"/>

  <ellipse cx="689" cy="643" rx="132" ry="161" fill="url(#bugBody)"/>
  <ellipse cx="689" cy="658" rx="98" ry="126" fill="url(#belly)"/>
  <ellipse cx="688" cy="504" rx="89" ry="81" fill="url(#bugBody)"/>

  <circle cx="656" cy="488" r="27" fill="#F8FAFC"/>
  <circle cx="723" cy="488" r="27" fill="#F8FAFC"/>
  <circle cx="662" cy="494" r="13" fill="#0F172A"/>
  <circle cx="729" cy="494" r="13" fill="#0F172A"/>
  <circle cx="668" cy="486" r="5" fill="#F8FAFC"/>
  <circle cx="735" cy="486" r="5" fill="#F8FAFC"/>
  <path d="M651 534C674 558 705 560 729 535" stroke="#7F1D4E" stroke-width="12" stroke-linecap="round"/>
  <circle cx="619" cy="530" r="14" fill="#FDA4AF" fill-opacity="0.72"/>
  <circle cx="758" cy="528" r="14" fill="#FDA4AF" fill-opacity="0.72"/>

  <path d="M650 438C629 404 610 380 584 359" stroke="#F472B6" stroke-width="10" stroke-linecap="round"/>
  <path d="M726 438C742 402 760 377 790 352" stroke="#F472B6" stroke-width="10" stroke-linecap="round"/>
  <circle cx="570" cy="349" r="17" fill="#7DD3FC"/>
  <circle cx="804" cy="343" r="17" fill="#7DD3FC"/>
  <circle cx="570" cy="349" r="9" fill="#E0F2FE"/>
  <circle cx="804" cy="343" r="9" fill="#E0F2FE"/>

  <path d="M612 596C573 635 547 684 531 723" stroke="#5B342B" stroke-width="12" stroke-linecap="round"/>
  <path d="M767 602C809 643 838 692 854 731" stroke="#5B342B" stroke-width="12" stroke-linecap="round"/>
  <path d="M618 704C577 723 551 742 526 777" stroke="#5B342B" stroke-width="10" stroke-linecap="round"/>
  <path d="M756 710C797 729 823 752 848 787" stroke="#5B342B" stroke-width="10" stroke-linecap="round"/>

  <ellipse cx="692" cy="787" rx="216" ry="48" fill="#020617" fill-opacity="0.36"/>

  <circle cx="310" cy="266" r="6" fill="#FDE68A"/>
  <circle cx="358" cy="338" r="8" fill="#FDE68A" fill-opacity="0.9"/>
  <circle cx="443" cy="296" r="5" fill="#BFDBFE"/>
  <circle cx="1381" cy="384" r="6" fill="#FDE68A"/>
  <circle cx="1290" cy="496" r="8" fill="#BFDBFE"/>
  <circle cx="1180" cy="371" r="5" fill="#FDE68A"/>

  <path d="M0 944C164 878 362 879 527 953C663 1014 852 1037 1013 1011C1180 984 1365 903 1600 938V1200H0V944Z" fill="#050B16" fill-opacity="0.56"/>
</svg>
